<svg xmlns="http://www.w3.org/2000/svg" viewBox="0 0 280 64" fill="none">
  <!-- Chef Hat Icon Container -->
  <rect x="0" y="8" width="48" height="48" rx="12" fill="url(#hero-gradient)"/>
  <path d="M30 39a1 1 0 0 0 1-1v-5.35c0-.457.316-.844.727-1.041a4 4 0 0 0-2.134-7.589 5 5 0 0 0-9.186 0 4 4 0 0 0-2.134 7.588c.411.198.727.585.727 1.041V38a1 1 0 0 0 1 1Z" stroke="white" stroke-width="2" stroke-linecap="round" stroke-linejoin="round"/>
  <path d="M19 35h12" stroke="white" stroke-width="2" stroke-linecap="round" stroke-linejoin="round"/>
  <!-- Wordmark -->
  <text x="60" y="46" font-family="'Space Grotesk', system-ui, sans-serif" font-size="36" font-weight="800" letter-spacing="-0.5">
    <tspan fill="url(#brand-gradient)">Chef</tspan><tspan fill="#2c2420">kix</tspan>
  </text>
  <defs>
    <linearGradient id="hero-gradient" x1="0" y1="8" x2="48" y2="56" gradientUnits="userSpaceOnUse">
      <stop stop-color="#ff5a36"/>
      <stop offset="1" stop-color="#ff7a5c"/>
    </linearGradient>
    <linearGradient id="brand-gradient" x1="60" y1="20" x2="140" y2="50" gradientUnits="userSpaceOnUse">
      <stop stop-color="#ff5a36"/>
      <stop offset="1" stop-color="#ff5a36" stop-opacity="0.8"/>
    </linearGradient>
  </defs>
</svg>
