<svg xmlns="http://www.w3.org/2000/svg" viewBox="0 0 120 120" fill="none">
  <!-- Background circle - brand coral -->
  <circle cx="60" cy="60" r="60" fill="#FF5A36" opacity="0.15"/>
  <circle cx="60" cy="60" r="56" fill="#FF5A36" opacity="0.08"/>
  
  <!-- Chef hat -->
  <path d="M40 52c0-11 8.9-20 20-20s20 9 20 20" stroke="#FF5A36" stroke-width="2.5" fill="white" opacity="0.9"/>
  <ellipse cx="42" cy="45" rx="8" ry="10" fill="white" stroke="#FF5A36" stroke-width="2"/>
  <ellipse cx="60" cy="40" rx="9" ry="11" fill="white" stroke="#FF5A36" stroke-width="2"/>
  <ellipse cx="78" cy="45" rx="8" ry="10" fill="white" stroke="#FF5A36" stroke-width="2"/>
  <rect x="40" y="48" width="40" height="8" rx="2" fill="white" stroke="#FF5A36" stroke-width="2"/>
  
  <!-- Face circle -->
  <circle cx="60" cy="72" r="18" fill="#FFF5F3" stroke="#FF5A36" stroke-width="2"/>
  
  <!-- Eyes -->
  <circle cx="53" cy="69" r="2.5" fill="#FF5A36"/>
  <circle cx="67" cy="69" r="2.5" fill="#FF5A36"/>
  
  <!-- Smile -->
  <path d="M54 77c2.5 3 8.5 3 12 0" stroke="#FF5A36" stroke-width="2" stroke-linecap="round" fill="none"/>
  
  <!-- Body/shoulders hint -->
  <path d="M35 105c0-14 11.2-25 25-25s25 11 25 25" fill="#FF5A36" opacity="0.12"/>
</svg>
